# xmcd
#
# Track frame offsets:
#	150
#	13688
#	27318
#	40291
#	54700
#	68721
#	83568
#	97178
#	108527
#	125070
#	143581
#	156471
#	169681
#	183296
#	196448
#	208804
#	225546
#
# Disc length: 3199
#
# Revision: 4
# Processed by: cddbd v1.5.1PL0 Copyright (c) Steve Scherf et al.
# Submitted via: CDex 1.50
# Normalized: r2:TDELIM( - ),TSWAP
#
DISCID=f00c7d11
DTITLE=Various Artist - songs for a Lazy Sunday (winter 2002) (Disk 2)
DYEAR=2002
DGENRE=Jazz
TTITLE0=George Shearing - So Rare
TTITLE1=Dianah Washington - Stairway To The Stars
TTITLE2=Coleman Hawkins - I Love You
TTITLE3=Oscar Peterson Trio - Back Home Again In Indiana
TTITLE4=Mel Torme - Your Getting To Be A Habit With Me
TTITLE5=Django Reinhardt - Nuages
TTITLE6=Peggy Lee - Baby Don't Be Mad With Me
TTITLE7=Lester Young - I'm Confessin
TTITLE8=Frank Sinatra - Night And Day
TTITLE9=Charlie Parker Quintet - Out Of Nowhere
TTITLE10=Erroll Garner - All Of Me
TTITLE11=Jo Stafford - Long Ago And Far Away
TTITLE12=Bud Powell - I Should Care
TTITLE13=Stan Getz - There's A Small Hotel
TTITLE14=Nat King Cole - Go To Sleep My Sleepy Head
TTITLE15=Don Byas - Laura
TTITLE16=Margaret Whiting - Old Devil Moon
EXTD=YEAR: 2002
EXTT0=
EXTT1=
EXTT2=
EXTT3=
EXTT4=
EXTT5=
EXTT6=
EXTT7=
EXTT8=
EXTT9=
EXTT10=
EXTT11=
EXTT12=
EXTT13=
EXTT14=
EXTT15=
EXTT16=
PLAYORDER=
